<?xml version="1.0" encoding="UTF-8"?>
<svg width="370px" height="135px" viewBox="0 0 370 135" version="1.1" xmlns="http://www.w3.org/2000/svg" xmlns:xlink="http://www.w3.org/1999/xlink">
    <!-- Generator: Sketch 50.2 (55047) - http://www.bohemiancoding.com/sketch -->
    <title>logo-wordmark</title>
    <desc>Created with Sketch.</desc>
    <defs/>
    <g id="Page-1" stroke="none" stroke-width="1" fill="none" fill-rule="evenodd">
        <g id="Artboard-1" fill="#151D1E">
            <g id="logo-wordmark">
                <path d="M343.7988,30.42 C340.6578,28.377 336.4568,29.268 334.4138,32.406 C332.3698,35.547 333.2588,39.748 336.3998,41.793 C348.7258,49.812 356.0848,63.358 356.0848,78.025 C356.0848,92.686 348.7328,106.224 336.4168,114.25 C336.4108,114.253 336.4048,114.256 336.3998,114.26 C329.3868,118.822 321.2518,121.234 312.8728,121.234 C304.4928,121.234 296.3588,118.822 289.3448,114.26 C289.3408,114.257 289.3368,114.256 289.3338,114.253 C277.0138,106.227 269.6578,92.688 269.6578,78.025 C269.6578,63.358 277.0188,49.812 289.3458,41.793 C292.4858,39.748 293.3748,35.547 291.3328,32.406 C289.2888,29.268 285.0888,28.379 281.9468,30.42 C265.7578,40.957 256.0938,58.751 256.0938,78.025 C256.0938,97.3 265.7578,115.096 281.9448,125.63 C281.9498,125.634 281.9558,125.636 281.9618,125.639 C291.1778,131.631 301.8658,134.798 312.8728,134.798 C323.8858,134.798 334.5808,131.628 343.7988,125.63 C359.9858,115.094 369.6528,97.3 369.6528,78.025 C369.6528,58.751 359.9868,40.957 343.7988,30.42" id="Fill-1"/>
                <path d="M327.9209,20.524 C328.9349,17.06 327.4769,8.714 323.1609,3.603 C321.1329,6.507 319.9909,10.228 318.9979,13.441 C317.2729,14.073 315.5479,13.304 313.4989,12.651 C312.3969,12.302 308.7189,11.485 307.9739,10.298 C307.2719,9.179 308.6589,7.896 309.3539,6.564 C309.8309,5.654 310.2419,4.339 310.6419,3.32 C311.1079,2.111 311.3009,0.941 310.5799,0 C306.2129,0.322 299.7559,3.884 297.3939,8.714 C296.7619,10.001 296.4309,12.501 296.5529,13.71 C296.6559,14.71 297.4649,16.722 298.0749,17.788 C300.4249,21.885 303.6399,25.303 305.3229,29.395 C307.4049,34.445 306.9439,38.722 307.0429,44.023 C307.4329,65.323 306.9829,72.147 306.9469,93.181 C306.9469,95.005 306.8169,97.177 307.2449,98.059 C309.7059,103.133 316.9829,103.631 319.4529,98.055 C320.2699,96.21 319.7129,92.562 319.6139,89.944 C319.2959,81.587 319.0839,73.502 318.8579,65.631 C318.5409,54.644 318.2819,56.962 317.7449,46.679 C317.4789,41.587 317.5259,35.928 320.3539,31.004 C321.6799,28.69 326.5659,23.493 327.9209,20.524" id="Fill-4"/>
                <path d="M24.6006,69.7423 C20.4456,69.7423 17.5756,70.5353 15.9906,72.1203 L15.9906,90.8983 C20.4176,91.7183 23.4526,92.8663 25.0916,94.3423 L24.2726,100.6563 L0.8206,100.6563 L-0.0004,94.3423 C0.7646,93.3043 2.2676,92.3743 4.5096,91.5543 L4.5096,68.7583 C2.5956,68.1023 1.0926,67.1743 -0.0004,65.9713 L0.8206,59.6563 C3.8266,59.0003 6.5326,58.6723 8.9386,58.6723 C11.3426,58.6723 13.3376,58.7273 14.9236,58.8363 L14.9236,64.0023 C16.1806,62.5263 17.7936,61.3103 19.7616,60.3533 C21.7306,59.3973 23.5206,58.9183 25.1326,58.9183 C26.7456,58.9183 27.8516,59.0553 28.4546,59.3283 L28.2076,69.9883 C27.1146,69.8243 25.9126,69.7423 24.6006,69.7423" id="Fill-6"/>
                <path d="M56.6602,75.4825 C56.7692,74.7175 56.8242,73.7885 56.8242,72.6945 C56.8242,71.6015 56.3872,70.4395 55.5132,69.2095 C54.6382,67.9795 53.1202,67.3645 50.9622,67.3645 C48.8022,67.3645 47.1482,68.0205 46.0012,69.3325 C44.8522,70.6445 44.0872,72.8585 43.7052,75.9745 L56.6602,75.4825 Z M51.4942,101.3125 C44.9342,101.3125 40.0012,99.5635 36.6932,96.0645 C33.3862,92.5665 31.7322,87.4825 31.7322,80.8125 C31.7322,76.7675 32.3062,73.2825 33.4552,70.3575 C34.6022,67.4335 36.1602,65.1785 38.1292,63.5915 C41.9542,60.5315 46.4102,59.0005 51.4942,59.0005 C56.5792,59.0005 60.4732,60.2995 63.1802,62.8955 C65.8862,65.4925 67.2382,70.1525 67.2382,76.8765 C67.2382,80.8125 65.2982,82.7805 61.4172,82.7805 L43.6232,82.7805 C43.8412,86.2245 44.7292,88.6575 46.2882,90.0785 C47.8462,91.5005 50.3182,92.2105 53.7092,92.2105 C55.5662,92.2105 57.3442,91.9925 59.0392,91.5545 C60.7322,91.1175 61.9632,90.6805 62.7282,90.2425 L63.8772,89.5865 L66.3372,96.1465 C66.0092,96.5295 65.5292,97.0065 64.9012,97.5815 C64.2722,98.1555 62.6872,98.9215 60.1452,99.8775 C57.6032,100.8335 54.7202,101.3125 51.4942,101.3125 Z" id="Fill-9"/>
                <path d="M87.8203,66.38 C84.2123,66.38 82.4083,67.446 82.4083,69.578 C82.4083,71.602 84.2943,73.105 88.0663,74.088 L94.5443,75.811 C101.2133,77.561 104.5483,81.414 104.5483,87.372 C104.5483,91.473 103.1133,94.821 100.2433,97.417 C97.3733,100.015 92.8073,101.313 86.5493,101.313 C80.2893,101.313 75.4103,100.439 71.9123,98.689 C71.8573,98.087 71.8303,97.486 71.8303,96.884 C71.8303,93.879 72.4303,91.173 73.6333,88.767 L80.4403,88.767 C81.1493,90.078 81.6153,91.445 81.8343,92.866 C82.9263,93.194 84.4853,93.359 86.5083,93.359 C91.3183,93.359 93.7233,91.992 93.7233,89.258 C93.7233,88.385 93.3963,87.659 92.7403,87.085 C92.0843,86.512 90.7993,85.951 88.8853,85.404 L82.4083,83.519 C79.0733,82.589 76.4753,81.209 74.6183,79.377 C72.7583,77.546 71.8303,74.841 71.8303,71.259 C71.8303,67.68 73.2783,64.74 76.1753,62.444 C79.0733,60.149 83.2143,59 88.5983,59 C93.9823,59 98.5343,59.793 102.2523,61.378 C102.3053,61.926 102.3343,62.473 102.3343,63.019 C102.3343,65.861 101.7313,68.485 100.5303,70.891 L93.8053,70.891 C93.0943,69.634 92.6303,68.321 92.4123,66.954 C90.8813,66.572 89.3493,66.38 87.8203,66.38" id="Fill-11"/>
                <path d="M123.3242,49.3243 L123.3242,59.6563 L135.0512,59.6563 L135.0512,66.5443 L123.3242,66.5443 L123.3242,87.2903 C123.3242,89.0403 123.5702,90.3113 124.0622,91.1033 C124.5542,91.8963 125.7292,92.2923 127.5892,92.2923 C129.4462,92.2923 131.4422,91.8823 133.5742,91.0623 L136.0342,97.4583 C131.8242,99.5903 127.5192,100.6563 123.1192,100.6563 C118.7192,100.6563 115.7392,99.7133 114.1812,97.8273 C112.6242,95.9413 111.8452,93.1943 111.8452,89.5863 L111.8452,66.5443 L108.1542,66.5443 L107.2532,61.5423 C108.1262,60.5053 109.9302,59.4663 112.6652,58.4263 C113.3202,53.9443 114.8792,50.9103 117.3392,49.3243 L123.3242,49.3243 Z" id="Fill-13"/>
                <path d="M155.3047,92.9483 C158.0927,92.9483 160.3067,92.1283 161.9467,90.4883 L161.9467,83.7643 L156.2057,83.7643 C152.2707,83.7643 150.3027,85.2683 150.3027,88.2743 C150.3027,89.6413 150.7257,90.7623 151.5737,91.6363 C152.4197,92.5113 153.6637,92.9483 155.3047,92.9483 M140.5447,65.7243 C140.5447,64.9043 140.5717,64.0303 140.6257,63.1003 C145.7107,60.3673 151.1767,59.0003 157.0267,59.0003 C162.8747,59.0003 167.0717,60.1073 169.6137,62.3213 C172.1557,64.5353 173.4267,68.2133 173.4267,73.3503 L173.4267,90.8163 C175.3397,91.1993 176.8417,91.6643 177.9367,92.2103 L177.9367,99.3443 C175.1487,100.6563 171.1577,101.3123 165.9647,101.3123 C165.4167,99.8913 164.9517,98.1693 164.5707,96.1463 C162.2197,99.5903 157.9547,101.3123 151.7787,101.3123 C148.1157,101.3123 144.9857,100.2463 142.3897,98.1143 C139.7917,95.9823 138.4937,93.0853 138.4937,89.4223 C138.4937,85.7613 139.7097,82.8763 142.1437,80.7713 C144.5757,78.6673 148.1977,77.6143 153.0087,77.6143 L161.9467,77.6143 L161.9467,73.6783 C161.9467,69.4143 159.6777,67.2823 155.1407,67.2823 C153.4457,67.2823 152.0517,67.4463 150.9577,67.7743 C150.8487,70.0703 150.5207,71.8473 149.9747,73.1043 L141.9387,73.1043 C141.0077,71.1913 140.5447,68.7313 140.5447,65.7243" id="Fill-15"/>
                <path d="M205.4883,69.7423 C201.3333,69.7423 198.4633,70.5353 196.8783,72.1203 L196.8783,90.8983 C201.3053,91.7183 204.3403,92.8663 205.9793,94.3423 L205.1603,100.6563 L181.7083,100.6563 L180.8873,94.3423 C181.6523,93.3043 183.1553,92.3743 185.3973,91.5543 L185.3973,68.7583 C183.4833,68.1023 181.9803,67.1743 180.8873,65.9713 L181.7083,59.6563 C184.7143,59.0003 187.4203,58.6723 189.8263,58.6723 C192.2303,58.6723 194.2253,58.7273 195.8113,58.8363 L195.8113,64.0023 C197.0683,62.5263 198.6813,61.3103 200.6493,60.3533 C202.6183,59.3973 204.4083,58.9183 206.0203,58.9183 C207.6333,58.9183 208.7393,59.0553 209.3423,59.3283 L209.0953,69.9883 C208.0023,69.8243 206.8003,69.7423 205.4883,69.7423" id="Fill-17"/>
                <path d="M227.626,49.3243 L227.626,59.6563 L239.353,59.6563 L239.353,66.5443 L227.626,66.5443 L227.626,87.2903 C227.626,89.0403 227.872,90.3113 228.364,91.1033 C228.856,91.8963 230.031,92.2923 231.891,92.2923 C233.748,92.2923 235.744,91.8823 237.876,91.0623 L240.336,97.4583 C236.126,99.5903 231.821,100.6563 227.421,100.6563 C223.021,100.6563 220.041,99.7133 218.483,97.8273 C216.926,95.9413 216.147,93.1943 216.147,89.5863 L216.147,66.5443 L212.456,66.5443 L211.555,61.5423 C212.428,60.5053 214.232,59.4663 216.967,58.4263 C217.622,53.9443 219.181,50.9103 221.641,49.3243 L227.626,49.3243 Z" id="Fill-19"/>
            </g>
        </g>
    </g>
</svg>